<?xml version="1.0" encoding="UTF-8"?>
<!DOCTYPE svg PUBLIC "-//W3C//DTD SVG 1.1//EN" "http://www.w3.org/Graphics/SVG/1.1/DTD/svg11.dtd">
<svg xmlns="http://www.w3.org/2000/svg" version="1.1" width="120px" height="120px" style="shape-rendering:geometricPrecision; text-rendering:geometricPrecision; image-rendering:optimizeQuality; fill-rule:evenodd; clip-rule:evenodd" xmlns:xlink="http://www.w3.org/1999/xlink">
<g><path style="opacity:1" fill="#fefefd" d="M -0.5,-0.5 C 12.5,-0.5 25.5,-0.5 38.5,-0.5C 5.18228,15.4819 -7.31772,41.8153 1,78.5C 7.0553,98.0555 19.5553,111.722 38.5,119.5C 25.5,119.5 12.5,119.5 -0.5,119.5C -0.5,79.5 -0.5,39.5 -0.5,-0.5 Z"/></g>
<g><path style="opacity:1" fill="#fdfefd" d="M 81.5,-0.5 C 94.1667,-0.5 106.833,-0.5 119.5,-0.5C 119.5,39.5 119.5,79.5 119.5,119.5C 106.833,119.5 94.1667,119.5 81.5,119.5C 98.5281,111.636 110.695,98.9695 118,81.5C 118.497,78.854 118.664,76.1873 118.5,73.5C 118.5,64.1667 118.5,54.8333 118.5,45.5C 118.151,36.1281 114.984,27.7948 109,20.5C 101.202,11.6372 92.0352,4.63721 81.5,-0.5 Z"/></g>
<g><path style="opacity:1" fill="#f8f8ef" d="M 71.5,12.5 C 74.913,13.6376 78.2464,14.9709 81.5,16.5C 83.3325,17.2485 84.9991,18.2485 86.5,19.5C 106.196,35.4336 111.696,55.4336 103,79.5C 99.1156,87.5464 93.6156,94.213 86.5,99.5C 80.6947,103.327 74.3613,105.994 67.5,107.5C 59.0657,107.847 50.7324,107.181 42.5,105.5C 39.6963,103.595 36.6963,101.929 33.5,100.5C 18.4133,88.9855 11.4133,73.6522 12.5,54.5C 14.7899,37.2167 23.4565,24.2167 38.5,15.5C 40.2838,15.1075 41.9505,14.4408 43.5,13.5C 52.7475,11.2767 62.0808,10.9434 71.5,12.5 Z"/></g>
<g><path style="opacity:1" fill="#effeee" d="M 86.5,7.5 C 94.0187,10.2868 100.519,14.6201 106,20.5C 111.8,28.0996 115.967,36.433 118.5,45.5C 118.5,54.8333 118.5,64.1667 118.5,73.5C 115.364,85.4315 109.364,95.7649 100.5,104.5C 95.8194,106.858 91.1528,109.191 86.5,111.5C 90.2576,108.443 94.2576,105.61 98.5,103C 111.76,91.6303 117.76,77.1303 116.5,59.5C 117.824,43.3271 112.824,29.4938 101.5,18C 100.167,17.6667 98.8333,17.3333 97.5,17C 94.2815,13.2792 90.6149,10.1125 86.5,7.5 Z"/></g>
<g><path style="opacity:1" fill="#fbf3ed" d="M 35.5,7.5 C 35.5,7.83333 35.5,8.16667 35.5,8.5C 11.2159,20.3763 0.38256,40.043 3,67.5C 5.75021,84.7041 14.2502,98.0374 28.5,107.5C 32.1464,109.817 35.4797,112.484 38.5,115.5C 38.44,116.043 38.1067,116.376 37.5,116.5C 19.9191,108.752 8.08581,95.7516 2,77.5C -4.48905,48.9577 3.67761,25.791 26.5,8C 30.1667,6.16667 33.8333,4.33333 37.5,2.5C 38.8333,3.16667 38.8333,3.83333 37.5,4.5C 35.8333,5.33333 34.1667,6.16667 32.5,7C 33.448,7.48278 34.448,7.64945 35.5,7.5 Z"/></g>
<g><path style="opacity:1" fill="#fafbf5" d="M 38.5,-0.5 C 52.8333,-0.5 67.1667,-0.5 81.5,-0.5C 92.0352,4.63721 101.202,11.6372 109,20.5C 114.984,27.7948 118.151,36.1281 118.5,45.5C 115.967,36.433 111.8,28.0996 106,20.5C 100.519,14.6201 94.0187,10.2868 86.5,7.5C 85.5084,7.67158 84.8417,7.33825 84.5,6.5C 78.0828,2.13521 70.9161,0.468544 63,1.5C 53.1339,0.904213 43.9672,2.90421 35.5,7.5C 34.448,7.64945 33.448,7.48278 32.5,7C 34.1667,6.16667 35.8333,5.33333 37.5,4.5C 38.8333,3.83333 38.8333,3.16667 37.5,2.5C 33.8333,4.33333 30.1667,6.16667 26.5,8C 3.67761,25.791 -4.48905,48.9577 2,77.5C 8.08581,95.7516 19.9191,108.752 37.5,116.5C 38.1067,116.376 38.44,116.043 38.5,115.5C 50.6964,118.826 63.0297,119.326 75.5,117C 78.8234,115.96 81.8234,114.46 84.5,112.5C 84.8417,111.662 85.5084,111.328 86.5,111.5C 91.1528,109.191 95.8194,106.858 100.5,104.5C 109.364,95.7649 115.364,85.4315 118.5,73.5C 118.664,76.1873 118.497,78.854 118,81.5C 110.695,98.9695 98.5281,111.636 81.5,119.5C 67.1667,119.5 52.8333,119.5 38.5,119.5C 19.5553,111.722 7.0553,98.0555 1,78.5C -7.31772,41.8153 5.18228,15.4819 38.5,-0.5 Z"/></g>
<g><path style="opacity:1" fill="#f1f4d0" d="M 75.5,24.5 C 76.4787,26.1454 77.812,27.4787 79.5,28.5C 79.3764,29.1067 79.0431,29.44 78.5,29.5C 74.6867,26.5976 70.3534,24.7642 65.5,24C 59.1754,23.5005 52.8421,23.3338 46.5,23.5C 44.4352,23.5172 42.4352,23.8505 40.5,24.5C 40.1583,23.6618 39.4916,23.3284 38.5,23.5C 39.1667,22.5 39.8333,21.5 40.5,20.5C 41.1667,20.5 41.8333,20.5 42.5,20.5C 49.8227,19.7149 57.1561,19.5482 64.5,20C 68.2618,21.4166 71.9285,22.9166 75.5,24.5 Z"/></g>
<g><path style="opacity:1" fill="#e9eead" d="M 71.5,19.5 C 73.751,20.8175 75.751,22.4842 77.5,24.5C 76.8333,24.5 76.1667,24.5 75.5,24.5C 71.9285,22.9166 68.2618,21.4166 64.5,20C 57.1561,19.5482 49.8227,19.7149 42.5,20.5C 43.6002,19.4415 44.9336,18.6082 46.5,18C 54.9443,17.0986 63.2776,17.5986 71.5,19.5 Z"/></g>
<g><path style="opacity:1" fill="#c0ef77" d="M 70.5,15.5 C 73.4432,15.9802 76.1098,16.9802 78.5,18.5C 77.9569,18.56 77.6236,18.8933 77.5,19.5C 80.3907,20.6192 82.3907,22.6192 83.5,25.5C 80.1667,23.5 76.8333,21.5 73.5,19.5C 71.4319,18.6252 69.4319,17.4585 67.5,16C 68.448,15.5172 69.448,15.3505 70.5,15.5 Z"/></g>
<g><path style="opacity:1" fill="#e4dd70" d="M 70.5,15.5 C 69.448,15.3505 68.448,15.5172 67.5,16C 69.4319,17.4585 71.4319,18.6252 73.5,19.5C 72.8333,19.5 72.1667,19.5 71.5,19.5C 63.2776,17.5986 54.9443,17.0986 46.5,18C 44.9336,18.6082 43.6002,19.4415 42.5,20.5C 41.8333,20.5 41.1667,20.5 40.5,20.5C 39.5084,20.6716 38.8417,20.3382 38.5,19.5C 48.6152,13.4301 59.2819,12.0968 70.5,15.5 Z"/></g>
<g><path style="opacity:1" fill="#e6c175" d="M 44.5,10.5 C 45.1667,10.5 45.8333,10.5 46.5,10.5C 45.0998,11.1001 44.0998,12.1001 43.5,13.5C 41.9505,14.4408 40.2838,15.1075 38.5,15.5C 36.8612,15.9258 35.5279,15.9258 34.5,15.5C 37.1556,12.711 40.4889,11.0444 44.5,10.5 Z"/></g>
<g><path style="opacity:1" fill="#c4ef7a" d="M 72.5,10.5 C 73.8333,10.5 75.1667,10.5 76.5,10.5C 80.1648,11.8419 83.8315,13.3419 87.5,15C 88.3805,15.7083 89.0472,16.5416 89.5,17.5C 87.772,16.621 85.9386,15.9543 84,15.5C 82.9302,15.528 82.0968,15.8614 81.5,16.5C 78.2464,14.9709 74.913,13.6376 71.5,12.5C 71.8333,11.8333 72.1667,11.1667 72.5,10.5 Z"/></g>
<g><path style="opacity:1" fill="#e7ec9a" d="M 74.5,8.5 C 75.1667,9.16667 75.8333,9.83333 76.5,10.5C 75.1667,10.5 73.8333,10.5 72.5,10.5C 68.7968,8.94498 64.7968,8.27831 60.5,8.5C 55.576,8.35407 50.9093,9.02074 46.5,10.5C 45.8333,10.5 45.1667,10.5 44.5,10.5C 44.5,10.1667 44.5,9.83333 44.5,9.5C 54.2808,6.00867 64.2808,5.67534 74.5,8.5 Z"/></g>
<g><path style="opacity:1" fill="#e4e376" d="M 72.5,10.5 C 72.1667,11.1667 71.8333,11.8333 71.5,12.5C 62.0808,10.9434 52.7475,11.2767 43.5,13.5C 44.0998,12.1001 45.0998,11.1001 46.5,10.5C 50.9093,9.02074 55.576,8.35407 60.5,8.5C 64.7968,8.27831 68.7968,8.94498 72.5,10.5 Z"/></g>
<g><path style="opacity:1" fill="#f2edbe" d="M 68.5,4.5 C 71.2106,5.8553 73.8773,7.18863 76.5,8.5C 75.8333,8.5 75.1667,8.5 74.5,8.5C 64.2808,5.67534 54.2808,6.00867 44.5,9.5C 40.7627,10.1996 37.0961,11.1996 33.5,12.5C 35.249,10.4842 37.249,8.81751 39.5,7.5C 43.687,7.60531 47.687,6.77198 51.5,5C 57.1569,4.50058 62.8236,4.33391 68.5,4.5 Z"/></g>
<g><path style="opacity:1" fill="#f8f7e0" d="M 84.5,6.5 C 79.7916,5.75813 75.1249,4.75813 70.5,3.5C 69.5836,3.54272 68.9169,3.87605 68.5,4.5C 62.8236,4.33391 57.1569,4.50058 51.5,5C 47.687,6.77198 43.687,7.60531 39.5,7.5C 38.1667,7.83333 36.8333,8.16667 35.5,8.5C 35.5,8.16667 35.5,7.83333 35.5,7.5C 43.9672,2.90421 53.1339,0.904213 63,1.5C 70.9161,0.468544 78.0828,2.13521 84.5,6.5 Z"/></g>
<g><path style="opacity:1" fill="#8df86d" d="M 78.5,18.5 C 84.0073,20.6766 88.6739,24.0099 92.5,28.5C 91.9569,28.56 91.6236,28.8933 91.5,29.5C 92.6302,30.6223 93.2969,31.9557 93.5,33.5C 90.4362,30.4297 87.1029,27.7631 83.5,25.5C 82.3907,22.6192 80.3907,20.6192 77.5,19.5C 77.6236,18.8933 77.9569,18.56 78.5,18.5 Z"/></g>
<g><path style="opacity:1" fill="#fdfcf9" d="M 43.5,89.5 C 39.5268,85.6986 35.3602,82.0319 31,78.5C 22.1316,60.8463 24.6316,45.013 38.5,31C 40.4517,30.6339 42.1184,29.8005 43.5,28.5C 45.2079,28.6227 47.0412,28.9561 49,29.5C 57.7625,26.4924 66.2625,27.1591 74.5,31.5C 77.8104,35.978 81.3104,40.3114 85,44.5C 91.957,63.9655 86.7903,79.1321 69.5,90C 60.8001,91.7636 52.1334,91.597 43.5,89.5 Z"/></g>
<g><path style="opacity:1" fill="#f1cbb0" d="M 44.5,9.5 C 44.5,9.83333 44.5,10.1667 44.5,10.5C 40.4889,11.0444 37.1556,12.711 34.5,15.5C 26.5285,19.1397 20.5285,24.8064 16.5,32.5C 9.0587,44.073 6.89203,56.7397 10,70.5C 12,75.8333 14,81.1667 16,86.5C 20.1667,91.3333 24.3333,96.1667 28.5,101C 30.0779,102.094 31.7446,102.928 33.5,103.5C 34.2623,105.262 35.5956,106.262 37.5,106.5C 37.5,107.167 37.5,107.833 37.5,108.5C 36.1667,108.167 34.8333,107.833 33.5,107.5C 31.4068,106.955 29.4068,106.122 27.5,105C 24.0181,101.188 20.1847,97.6878 16,94.5C 0.785422,66.2352 3.95209,40.4018 25.5,17C 28.3559,15.7413 31.0226,14.2413 33.5,12.5C 37.0961,11.1996 40.7627,10.1996 44.5,9.5 Z"/></g>
<g><path style="opacity:1" fill="#efc1a3" d="M 38.5,23.5 C 39.4916,23.3284 40.1583,23.6618 40.5,24.5C 30.5989,30.9077 24.4323,39.9077 22,51.5C 21.3355,59.5363 21.6688,67.5363 23,75.5C 26.9299,81.7034 31.0966,87.7034 35.5,93.5C 35.1667,93.5 34.8333,93.5 34.5,93.5C 21.2042,81.7815 15.7042,67.1149 18,49.5C 21.4966,40.0664 26.9966,31.8997 34.5,25C 35.745,24.2086 37.0783,23.7086 38.5,23.5 Z"/></g>
<g><path style="opacity:1" fill="#f6fdf1" d="M 46.5,23.5 C 52.8421,23.3338 59.1754,23.5005 65.5,24C 70.3534,24.7642 74.6867,26.5976 78.5,29.5C 92.8167,43.7646 95.8167,60.0979 87.5,78.5C 85.3055,83.3663 82.3055,87.6996 78.5,91.5C 76.9557,91.2969 75.6223,90.6302 74.5,89.5C 70.0864,91.6812 65.4197,93.0146 60.5,93.5C 55.8038,93.6534 51.1372,93.32 46.5,92.5C 45.3065,91.7281 44.3065,90.7281 43.5,89.5C 52.1334,91.597 60.8001,91.7636 69.5,90C 86.7903,79.1321 91.957,63.9655 85,44.5C 81.3104,40.3114 77.8104,35.978 74.5,31.5C 66.2625,27.1591 57.7625,26.4924 49,29.5C 47.0412,28.9561 45.2079,28.6227 43.5,28.5C 45.3588,27.1522 47.3588,25.9855 49.5,25C 48.2625,24.7679 47.2625,24.2679 46.5,23.5 Z"/></g>
<g><path style="opacity:1" fill="#9bfd95" d="M 83.5,25.5 C 87.1029,27.7631 90.4362,30.4297 93.5,33.5C 96.0789,37.8002 97.7455,42.4669 98.5,47.5C 95.5961,43.611 93.4295,39.2776 92,34.5C 88.9621,31.6306 86.1288,28.6306 83.5,25.5 Z"/></g>
<g><path style="opacity:1" fill="#c7fcbe" d="M 74.5,8.5 C 75.1667,8.5 75.8333,8.5 76.5,8.5C 83.3273,10.5803 89.6606,13.747 95.5,18C 99.7275,23.0536 104.061,27.887 108.5,32.5C 109.833,38.1667 111.167,43.8333 112.5,49.5C 109.951,46.0339 108.451,42.0339 108,37.5C 107.583,36.244 106.75,35.5774 105.5,35.5C 105.657,34.1266 105.49,32.7932 105,31.5C 99.5925,26.917 94.4258,22.2504 89.5,17.5C 89.0472,16.5416 88.3805,15.7083 87.5,15C 83.8315,13.3419 80.1648,11.8419 76.5,10.5C 75.8333,9.83333 75.1667,9.16667 74.5,8.5 Z"/></g>
<g><path style="opacity:1" fill="#e6fde2" d="M 68.5,4.5 C 68.9169,3.87605 69.5836,3.54272 70.5,3.5C 75.1249,4.75813 79.7916,5.75813 84.5,6.5C 84.8417,7.33825 85.5084,7.67158 86.5,7.5C 90.6149,10.1125 94.2815,13.2792 97.5,17C 98.8333,17.3333 100.167,17.6667 101.5,18C 112.824,29.4938 117.824,43.3271 116.5,59.5C 117.76,77.1303 111.76,91.6303 98.5,103C 94.2576,105.61 90.2576,108.443 86.5,111.5C 85.5084,111.328 84.8417,111.662 84.5,112.5C 82.8333,112.5 81.1667,112.5 79.5,112.5C 83.9667,109.66 88.6334,106.993 93.5,104.5C 99.032,99.6493 103.365,93.9827 106.5,87.5C 108.85,85.6408 110.684,83.3075 112,80.5C 115.727,69.084 116.394,57.4173 114,45.5C 112.148,42.1004 110.982,38.4337 110.5,34.5C 110.253,33.2867 109.586,32.62 108.5,32.5C 104.061,27.887 99.7275,23.0536 95.5,18C 89.6606,13.747 83.3273,10.5803 76.5,8.5C 73.8773,7.18863 71.2106,5.8553 68.5,4.5 Z"/></g>
<g><path style="opacity:1" fill="#e59b69" d="M 34.5,15.5 C 35.5279,15.9258 36.8612,15.9258 38.5,15.5C 23.4565,24.2167 14.7899,37.2167 12.5,54.5C 11.6773,57.977 11.1773,61.6437 11,65.5C 10.3333,60.1667 10.3333,54.8333 11,49.5C 13.3458,43.9634 15.1792,38.2968 16.5,32.5C 20.5285,24.8064 26.5285,19.1397 34.5,15.5 Z"/></g>
<g><path style="opacity:1" fill="#f7e5d8" d="M 46.5,23.5 C 47.2625,24.2679 48.2625,24.7679 49.5,25C 47.3588,25.9855 45.3588,27.1522 43.5,28.5C 42.1184,29.8005 40.4517,30.6339 38.5,31C 24.6316,45.013 22.1316,60.8463 31,78.5C 35.3602,82.0319 39.5268,85.6986 43.5,89.5C 44.3065,90.7281 45.3065,91.7281 46.5,92.5C 43.8239,91.9919 41.1572,91.8253 38.5,92C 40.0931,92.9487 41.4264,94.1154 42.5,95.5C 39.8915,95.5997 37.5582,94.9331 35.5,93.5C 31.0966,87.7034 26.9299,81.7034 23,75.5C 21.6688,67.5363 21.3355,59.5363 22,51.5C 24.4323,39.9077 30.5989,30.9077 40.5,24.5C 42.4352,23.8505 44.4352,23.5172 46.5,23.5 Z"/></g>
<g><path style="opacity:1" fill="#edbb27" d="M 44.5,38.5 C 46.1032,39.5964 47.6032,40.9297 49,42.5C 49.6172,43.4491 49.4506,44.2825 48.5,45C 50.5206,45.513 52.0206,46.6797 53,48.5C 53.6172,49.4491 53.4506,50.2825 52.5,51C 56.1592,51.681 57.4925,53.681 56.5,57C 60.1592,57.681 61.4925,59.681 60.5,63C 62.3289,63.2735 63.8289,64.1068 65,65.5C 67.6667,69.5 70.3333,73.5 73,77.5C 72.6692,79.0187 72.8359,80.352 73.5,81.5C 72.7494,82.5735 71.7494,82.7401 70.5,82C 66.9432,77.0384 63.2766,72.2051 59.5,67.5C 55.1467,72.5266 51.1467,77.86 47.5,83.5C 46.4777,83.1445 45.811,82.4778 45.5,81.5C 46.1641,80.352 46.3308,79.0187 46,77.5C 47.1011,75.6061 48.4345,74.9394 50,75.5C 50.4922,74.451 50.3256,73.451 49.5,72.5C 52.1585,69.179 54.4918,65.679 56.5,62C 56.1639,60.9701 55.4972,60.4701 54.5,60.5C 50.6856,53.5491 46.3523,46.8824 41.5,40.5C 42.0047,39.0815 43.0047,38.4148 44.5,38.5 Z"/></g>
<g><path style="opacity:1" fill="#e5fee3" d="M 75.5,24.5 C 76.1667,24.5 76.8333,24.5 77.5,24.5C 82.4134,28.2447 86.9134,32.5781 91,37.5C 91.6077,39.1545 92.1077,40.8211 92.5,42.5C 94.2853,50.7327 94.7853,59.066 94,67.5C 93.3443,72.1571 91.1776,75.8238 87.5,78.5C 95.8167,60.0979 92.8167,43.7646 78.5,29.5C 79.0431,29.44 79.3764,29.1067 79.5,28.5C 77.812,27.4787 76.4787,26.1454 75.5,24.5 Z"/></g>
<g><path style="opacity:1" fill="#b18b21" d="M 74.5,38.5 C 72.6964,39.3807 71.1964,40.714 70,42.5C 69.3828,43.4491 69.5494,44.2825 70.5,45C 68.4794,45.513 66.9794,46.6797 66,48.5C 65.3828,49.4491 65.5494,50.2825 66.5,51C 63.736,51.2633 62.0694,52.7633 61.5,55.5C 62.1882,56.8549 63.1882,57.8549 64.5,58.5C 68.4371,65.5305 72.7704,72.3639 77.5,79C 76.3066,80.0946 74.9733,80.928 73.5,81.5C 72.8359,80.352 72.6692,79.0187 73,77.5C 70.3333,73.5 67.6667,69.5 65,65.5C 63.8289,64.1068 62.3289,63.2735 60.5,63C 61.4925,59.681 60.1592,57.681 56.5,57C 57.4925,53.681 56.1592,51.681 52.5,51C 53.4506,50.2825 53.6172,49.4491 53,48.5C 52.0206,46.6797 50.5206,45.513 48.5,45C 49.4506,44.2825 49.6172,43.4491 49,42.5C 47.6032,40.9297 46.1032,39.5964 44.5,38.5C 45.3149,37.1634 46.4815,36.1634 48,35.5C 51.6004,41.0476 55.4337,46.3809 59.5,51.5C 63.1892,47.1352 66.5225,42.4685 69.5,37.5C 71.5819,36.1057 73.2486,36.439 74.5,38.5 Z"/></g>
<g><path style="opacity:1" fill="#edbb27" d="M 74.5,38.5 C 76.3442,39.2039 76.8442,40.5372 76,42.5C 72.3902,48.0769 68.5568,53.4102 64.5,58.5C 63.1882,57.8549 62.1882,56.8549 61.5,55.5C 62.0694,52.7633 63.736,51.2633 66.5,51C 65.5494,50.2825 65.3828,49.4491 66,48.5C 66.9794,46.6797 68.4794,45.513 70.5,45C 69.5494,44.2825 69.3828,43.4491 70,42.5C 71.1964,40.714 72.6964,39.3807 74.5,38.5 Z"/></g>
<g><path style="opacity:1" fill="#d5fed3" d="M 92.5,42.5 C 93.7186,44.9139 95.2186,47.2472 97,49.5C 97.9143,58.2997 97.4143,66.9664 95.5,75.5C 92.5079,79.4757 90.0079,83.809 88,88.5C 85.9135,91.0939 83.4135,93.0939 80.5,94.5C 83.2058,90.5391 82.5391,89.8724 78.5,92.5C 78.5,92.1667 78.5,91.8333 78.5,91.5C 82.3055,87.6996 85.3055,83.3663 87.5,78.5C 91.1776,75.8238 93.3443,72.1571 94,67.5C 94.7853,59.066 94.2853,50.7327 92.5,42.5 Z"/></g>
<g><path style="opacity:1" fill="#bffdb9" d="M 71.5,19.5 C 72.1667,19.5 72.8333,19.5 73.5,19.5C 76.8333,21.5 80.1667,23.5 83.5,25.5C 86.1288,28.6306 88.9621,31.6306 92,34.5C 93.4295,39.2776 95.5961,43.611 98.5,47.5C 99.6374,54.8344 99.6374,62.1677 98.5,69.5C 97.7918,71.7451 96.7918,73.7451 95.5,75.5C 97.4143,66.9664 97.9143,58.2997 97,49.5C 95.2186,47.2472 93.7186,44.9139 92.5,42.5C 92.1077,40.8211 91.6077,39.1545 91,37.5C 86.9134,32.5781 82.4134,28.2447 77.5,24.5C 75.751,22.4842 73.751,20.8175 71.5,19.5 Z"/></g>
<g><path style="opacity:1" fill="#92fe90" d="M 98.5,47.5 C 99.3149,48.4293 100.148,49.4293 101,50.5C 102.996,61.053 101.163,70.7196 95.5,79.5C 95.5,78.1667 95.5,76.8333 95.5,75.5C 96.7918,73.7451 97.7918,71.7451 98.5,69.5C 99.6374,62.1677 99.6374,54.8344 98.5,47.5 Z"/></g>
<g><path style="opacity:1" fill="#71fd6b" d="M 92.5,28.5 C 108.303,48.9603 108.47,69.6269 93,90.5C 91.0737,92.5389 88.907,94.2055 86.5,95.5C 86.0618,95.5654 85.7284,95.3988 85.5,95C 86.8228,94.1841 87.4894,93.0174 87.5,91.5C 90.5848,87.7542 93.2515,83.7542 95.5,79.5C 101.163,70.7196 102.996,61.053 101,50.5C 100.148,49.4293 99.3149,48.4293 98.5,47.5C 97.7455,42.4669 96.0789,37.8002 93.5,33.5C 93.2969,31.9557 92.6302,30.6223 91.5,29.5C 91.6236,28.8933 91.9569,28.56 92.5,28.5 Z"/></g>
<g><path style="opacity:1" fill="#e59a68" d="M 38.5,19.5 C 38.8417,20.3382 39.5084,20.6716 40.5,20.5C 39.8333,21.5 39.1667,22.5 38.5,23.5C 37.0783,23.7086 35.745,24.2086 34.5,25C 26.9966,31.8997 21.4966,40.0664 18,49.5C 15.7042,67.1149 21.2042,81.7815 34.5,93.5C 34.7329,95.0618 35.3995,96.3951 36.5,97.5C 36.5,97.8333 36.5,98.1667 36.5,98.5C 19.2538,86.2932 12.4204,69.6266 16,48.5C 19.674,35.7968 27.174,26.1302 38.5,19.5 Z"/></g>
<g><path style="opacity:1" fill="#8afd83" d="M 81.5,16.5 C 82.0968,15.8614 82.9302,15.528 84,15.5C 85.9386,15.9543 87.772,16.621 89.5,17.5C 94.4258,22.2504 99.5925,26.917 105,31.5C 105.49,32.7932 105.657,34.1266 105.5,35.5C 110.18,46.3722 111.68,57.7055 110,69.5C 109.295,72.4757 108.129,75.1423 106.5,77.5C 113.06,55.4927 108.06,36.6594 91.5,21C 90.0337,20.3645 88.7003,19.5312 87.5,18.5C 86.8933,18.6236 86.56,18.9569 86.5,19.5C 84.9991,18.2485 83.3325,17.2485 81.5,16.5 Z"/></g>
<g><path style="opacity:1" fill="#79fd71" d="M 86.5,19.5 C 86.56,18.9569 86.8933,18.6236 87.5,18.5C 88.7003,19.5312 90.0337,20.3645 91.5,21C 108.06,36.6594 113.06,55.4927 106.5,77.5C 106.5,78.8333 106.5,80.1667 106.5,81.5C 105.167,83.8333 103.833,86.1667 102.5,88.5C 99.6317,91.6879 96.6317,94.8546 93.5,98C 91.5483,98.3661 89.8816,99.1995 88.5,100.5C 87.5084,100.672 86.8417,100.338 86.5,99.5C 93.6156,94.213 99.1156,87.5464 103,79.5C 111.696,55.4336 106.196,35.4336 86.5,19.5 Z"/></g>
<g><path style="opacity:1" fill="#abfea9" d="M 105.5,35.5 C 106.75,35.5774 107.583,36.244 108,37.5C 108.451,42.0339 109.951,46.0339 112.5,49.5C 112.5,56.1667 112.5,62.8333 112.5,69.5C 111.883,69.6107 111.383,69.944 111,70.5C 110.04,73.6332 109.207,76.7999 108.5,80C 108.164,81.0299 107.497,81.5299 106.5,81.5C 106.5,80.1667 106.5,78.8333 106.5,77.5C 108.129,75.1423 109.295,72.4757 110,69.5C 111.68,57.7055 110.18,46.3722 105.5,35.5 Z"/></g>
<g><path style="opacity:1" fill="#b18a1f" d="M 54.5,60.5 C 55.4972,60.4701 56.1639,60.9701 56.5,62C 54.4918,65.679 52.1585,69.179 49.5,72.5C 50.3256,73.451 50.4922,74.451 50,75.5C 48.4345,74.9394 47.1011,75.6061 46,77.5C 46.3308,79.0187 46.1641,80.352 45.5,81.5C 44.0267,80.928 42.6934,80.0946 41.5,79C 45.6964,72.6535 50.0297,66.4869 54.5,60.5 Z"/></g>
<g><path style="opacity:1" fill="#d6ffd6" d="M 108.5,32.5 C 109.586,32.62 110.253,33.2867 110.5,34.5C 110.982,38.4337 112.148,42.1004 114,45.5C 116.394,57.4173 115.727,69.084 112,80.5C 110.684,83.3075 108.85,85.6408 106.5,87.5C 106.886,85.0634 108.053,83.0634 110,81.5C 110.332,77.3053 111.165,73.3053 112.5,69.5C 112.5,62.8333 112.5,56.1667 112.5,49.5C 111.167,43.8333 109.833,38.1667 108.5,32.5 Z"/></g>
<g><path style="opacity:1" fill="#e7a275" d="M 16.5,32.5 C 15.1792,38.2968 13.3458,43.9634 11,49.5C 10.3333,54.8333 10.3333,60.1667 11,65.5C 11.1773,61.6437 11.6773,57.977 12.5,54.5C 11.4133,73.6522 18.4133,88.9855 33.5,100.5C 32.8843,101.202 32.8843,102.202 33.5,103.5C 31.7446,102.928 30.0779,102.094 28.5,101C 24.3333,96.1667 20.1667,91.3333 16,86.5C 14,81.1667 12,75.8333 10,70.5C 6.89203,56.7397 9.0587,44.073 16.5,32.5 Z"/></g>
<g><path style="opacity:1" fill="#bdfebb" d="M 112.5,69.5 C 111.165,73.3053 110.332,77.3053 110,81.5C 108.053,83.0634 106.886,85.0634 106.5,87.5C 104.113,89.9131 101.946,92.5798 100,95.5C 98.549,97.4641 96.7157,98.7974 94.5,99.5C 97.9101,96.3351 100.577,92.6684 102.5,88.5C 103.833,86.1667 105.167,83.8333 106.5,81.5C 107.497,81.5299 108.164,81.0299 108.5,80C 109.207,76.7999 110.04,73.6332 111,70.5C 111.383,69.944 111.883,69.6107 112.5,69.5 Z"/></g>
<g><path style="opacity:1" fill="#b0fa9b" d="M 95.5,75.5 C 95.5,76.8333 95.5,78.1667 95.5,79.5C 93.2515,83.7542 90.5848,87.7542 87.5,91.5C 84.2802,93.6029 81.2802,95.9362 78.5,98.5C 77.5,98.5 76.5,98.5 75.5,98.5C 77.3492,97.407 79.0158,96.0737 80.5,94.5C 83.4135,93.0939 85.9135,91.0939 88,88.5C 90.0079,83.809 92.5079,79.4757 95.5,75.5 Z"/></g>
<g><path style="opacity:1" fill="#f8e6da" d="M 39.5,7.5 C 37.249,8.81751 35.249,10.4842 33.5,12.5C 31.0226,14.2413 28.3559,15.7413 25.5,17C 3.95209,40.4018 0.785422,66.2352 16,94.5C 20.1847,97.6878 24.0181,101.188 27.5,105C 29.4068,106.122 31.4068,106.955 33.5,107.5C 33.631,108.239 33.4643,108.906 33,109.5C 31.6703,108.418 30.1703,107.751 28.5,107.5C 14.2502,98.0374 5.75021,84.7041 3,67.5C 0.38256,40.043 11.2159,20.3763 35.5,8.5C 36.8333,8.16667 38.1667,7.83333 39.5,7.5 Z"/></g>
<g><path style="opacity:1" fill="#b0fa9b" d="M 102.5,88.5 C 100.577,92.6684 97.9101,96.3351 94.5,99.5C 92.1415,101.529 89.8082,103.529 87.5,105.5C 85.4352,105.517 83.4352,105.85 81.5,106.5C 83.5755,104.281 85.9088,102.281 88.5,100.5C 89.8816,99.1995 91.5483,98.3661 93.5,98C 96.6317,94.8546 99.6317,91.6879 102.5,88.5 Z"/></g>
<g><path style="opacity:1" fill="#f6f4d8" d="M 78.5,91.5 C 78.5,91.8333 78.5,92.1667 78.5,92.5C 67.9146,98.4461 56.5812,100.113 44.5,97.5C 44.1667,96.5 43.5,95.8333 42.5,95.5C 41.4264,94.1154 40.0931,92.9487 38.5,92C 41.1572,91.8253 43.8239,91.9919 46.5,92.5C 51.1372,93.32 55.8038,93.6534 60.5,93.5C 65.4197,93.0146 70.0864,91.6812 74.5,89.5C 75.6223,90.6302 76.9557,91.2969 78.5,91.5 Z"/></g>
<g><path style="opacity:1" fill="#ebcd90" d="M 34.5,93.5 C 34.8333,93.5 35.1667,93.5 35.5,93.5C 37.5582,94.9331 39.8915,95.5997 42.5,95.5C 43.5,95.8333 44.1667,96.5 44.5,97.5C 45.5,98.1667 46.5,98.8333 47.5,99.5C 46.5,99.5 45.5,99.5 44.5,99.5C 41.994,98.2504 39.3274,97.5838 36.5,97.5C 35.3995,96.3951 34.7329,95.0618 34.5,93.5 Z"/></g>
<g><path style="opacity:1" fill="#ebf4bf" d="M 80.5,94.5 C 76.0995,95.7156 71.7662,97.2156 67.5,99C 60.8417,99.4996 54.175,99.6663 47.5,99.5C 46.5,98.8333 45.5,98.1667 44.5,97.5C 56.5812,100.113 67.9146,98.4461 78.5,92.5C 82.5391,89.8724 83.2058,90.5391 80.5,94.5 Z"/></g>
<g><path style="opacity:1" fill="#a6f168" d="M 87.5,91.5 C 87.4894,93.0174 86.8228,94.1841 85.5,95C 85.7284,95.3988 86.0618,95.5654 86.5,95.5C 84.3709,97.9501 81.7043,99.6167 78.5,100.5C 77.4937,100.062 77.4937,99.3957 78.5,98.5C 81.2802,95.9362 84.2802,93.6029 87.5,91.5 Z"/></g>
<g><path style="opacity:1" fill="#e9e99b" d="M 80.5,94.5 C 79.0158,96.0737 77.3492,97.407 75.5,98.5C 68.4542,101.174 61.1209,102.174 53.5,101.5C 50.1226,101.932 47.1226,101.265 44.5,99.5C 45.5,99.5 46.5,99.5 47.5,99.5C 54.175,99.6663 60.8417,99.4996 67.5,99C 71.7662,97.2156 76.0995,95.7156 80.5,94.5 Z"/></g>
<g><path style="opacity:1" fill="#e5d26e" d="M 36.5,98.5 C 36.5,98.1667 36.5,97.8333 36.5,97.5C 39.3274,97.5838 41.994,98.2504 44.5,99.5C 47.1226,101.265 50.1226,101.932 53.5,101.5C 53.6107,102.117 53.944,102.617 54.5,103C 53.5842,103.278 52.9175,103.778 52.5,104.5C 46.6143,103.873 41.281,101.873 36.5,98.5 Z"/></g>
<g><path style="opacity:1" fill="#dee56e" d="M 75.5,98.5 C 76.5,98.5 77.5,98.5 78.5,98.5C 77.4937,99.3957 77.4937,100.062 78.5,100.5C 70.3812,105.055 61.7145,106.388 52.5,104.5C 52.9175,103.778 53.5842,103.278 54.5,103C 53.944,102.617 53.6107,102.117 53.5,101.5C 61.1209,102.174 68.4542,101.174 75.5,98.5 Z"/></g>
<g><path style="opacity:1" fill="#e5bd6e" d="M 33.5,100.5 C 36.6963,101.929 39.6963,103.595 42.5,105.5C 41.8333,105.5 41.5,105.833 41.5,106.5C 40.8333,106.5 40.1667,106.5 39.5,106.5C 38.8333,106.5 38.1667,106.5 37.5,106.5C 35.5956,106.262 34.2623,105.262 33.5,103.5C 32.8843,102.202 32.8843,101.202 33.5,100.5 Z"/></g>
<g><path style="opacity:1" fill="#c7ec72" d="M 86.5,99.5 C 86.8417,100.338 87.5084,100.672 88.5,100.5C 85.9088,102.281 83.5755,104.281 81.5,106.5C 77.6641,107.884 73.6641,108.884 69.5,109.5C 68.8333,108.833 68.1667,108.167 67.5,107.5C 74.3613,105.994 80.6947,103.327 86.5,99.5 Z"/></g>
<g><path style="opacity:1" fill="#e0face" d="M 106.5,87.5 C 103.365,93.9827 99.032,99.6493 93.5,104.5C 88.6334,106.993 83.9667,109.66 79.5,112.5C 76.5448,113.159 73.5448,113.492 70.5,113.5C 71.8333,112.833 73.1667,112.167 74.5,111.5C 78.7872,109.51 83.1206,107.51 87.5,105.5C 89.8082,103.529 92.1415,101.529 94.5,99.5C 96.7157,98.7974 98.549,97.4641 100,95.5C 101.946,92.5798 104.113,89.9131 106.5,87.5 Z"/></g>
<g><path style="opacity:1" fill="#e4e274" d="M 41.5,106.5 C 41.5,105.833 41.8333,105.5 42.5,105.5C 50.7324,107.181 59.0657,107.847 67.5,107.5C 68.1667,108.167 68.8333,108.833 69.5,109.5C 59.9285,111.501 50.5952,110.501 41.5,106.5 Z"/></g>
<g><path style="opacity:1" fill="#e8eb9f" d="M 87.5,105.5 C 83.1206,107.51 78.7872,109.51 74.5,111.5C 65.1708,112.688 55.8374,112.688 46.5,111.5C 44.3134,109.578 41.9801,107.912 39.5,106.5C 40.1667,106.5 40.8333,106.5 41.5,106.5C 50.5952,110.501 59.9285,111.501 69.5,109.5C 73.6641,108.884 77.6641,107.884 81.5,106.5C 83.4352,105.85 85.4352,105.517 87.5,105.5 Z"/></g>
<g><path style="opacity:1" fill="#f2eebf" d="M 37.5,106.5 C 38.1667,106.5 38.8333,106.5 39.5,106.5C 41.9801,107.912 44.3134,109.578 46.5,111.5C 55.8374,112.688 65.1708,112.688 74.5,111.5C 73.1667,112.167 71.8333,112.833 70.5,113.5C 61.8379,114.805 53.1713,114.639 44.5,113C 42.8264,110.495 40.493,108.995 37.5,108.5C 37.5,107.833 37.5,107.167 37.5,106.5 Z"/></g>
<g><path style="opacity:1" fill="#f8f7e3" d="M 28.5,107.5 C 30.1703,107.751 31.6703,108.418 33,109.5C 33.4643,108.906 33.631,108.239 33.5,107.5C 34.8333,107.833 36.1667,108.167 37.5,108.5C 40.493,108.995 42.8264,110.495 44.5,113C 53.1713,114.639 61.8379,114.805 70.5,113.5C 73.5448,113.492 76.5448,113.159 79.5,112.5C 81.1667,112.5 82.8333,112.5 84.5,112.5C 81.8234,114.46 78.8234,115.96 75.5,117C 63.0297,119.326 50.6964,118.826 38.5,115.5C 35.4797,112.484 32.1464,109.817 28.5,107.5 Z"/></g>
</svg>
